<svg width="21" height="16" viewBox="0 0 21 16" fill="none" xmlns="http://www.w3.org/2000/svg">
<path d="M19.5 0C19.7449 3.23106e-05 19.9813 0.089956 20.1644 0.252715C20.3474 0.415474 20.4643 0.639749 20.493 0.883L20.5 1V7.5C20.5001 8.39507 20.1572 9.25615 19.5419 9.90621C18.9267 10.5563 18.0857 10.9459 17.192 10.995L17 11H3.915L7.207 14.293C7.37918 14.4652 7.48261 14.6943 7.49789 14.9373C7.51317 15.1803 7.43925 15.4206 7.29 15.613L7.207 15.707C7.03481 15.8792 6.80571 15.9826 6.56268 15.9979C6.31965 16.0132 6.0794 15.9393 5.887 15.79L5.793 15.707L0.793 10.707C0.757942 10.6721 0.725519 10.6347 0.696 10.595L0.625 10.485L0.571 10.371L0.536 10.266L0.511 10.149L0.504 10.089L0.5 10L0.503 9.925L0.52 9.799L0.55 9.688L0.594 9.577L0.646 9.479L0.71 9.387L0.793 9.293L5.793 4.293C5.97296 4.11365 6.21443 4.00953 6.46838 4.00177C6.72233 3.99402 6.96971 4.08321 7.16028 4.25125C7.35084 4.41928 7.47031 4.65355 7.4944 4.90647C7.51849 5.1594 7.44541 5.41201 7.29 5.613L7.207 5.707L3.915 9H17C17.3727 9.00001 17.7321 8.86124 18.0081 8.61075C18.2841 8.36026 18.457 8.01598 18.493 7.645L18.5 7.5V1C18.5 0.734784 18.6054 0.48043 18.7929 0.292893C18.9804 0.105357 19.2348 0 19.5 0Z" fill="#369EFF"/>
</svg>
