<svg width="21" height="20" viewBox="0 0 21 20" fill="none" xmlns="http://www.w3.org/2000/svg">
<path d="M11.5286 0C12.6536 0.003 13.2246 0.009 13.7176 0.023L13.9116 0.03C14.1356 0.038 14.3566 0.0479999 14.6236 0.0599999C15.6876 0.11 16.4136 0.278 17.0506 0.525C17.7106 0.779 18.2666 1.123 18.8226 1.678C19.3313 2.17773 19.7248 2.78247 19.9756 3.45C20.2226 4.087 20.3906 4.813 20.4406 5.878C20.4526 6.144 20.4626 6.365 20.4706 6.59L20.4766 6.784C20.4916 7.276 20.4976 7.847 20.4996 8.972L20.5006 9.718V11.028C20.503 11.7574 20.4953 12.4868 20.4776 13.216L20.4716 13.41C20.4636 13.635 20.4536 13.856 20.4416 14.122C20.3916 15.187 20.2216 15.912 19.9756 16.55C19.7248 17.2175 19.3313 17.8223 18.8226 18.322C18.3228 18.8307 17.7181 19.2242 17.0506 19.475C16.4136 19.722 15.6876 19.89 14.6236 19.94L13.9116 19.97L13.7176 19.976C13.2246 19.99 12.6536 19.997 11.5286 19.999L10.7826 20H9.47357C8.74383 20.0026 8.01409 19.9949 7.28457 19.977L7.09057 19.971C6.85318 19.962 6.61584 19.9517 6.37857 19.94C5.31457 19.89 4.58857 19.722 3.95057 19.475C3.2834 19.2241 2.67901 18.8306 2.17957 18.322C1.67051 17.8224 1.27668 17.2176 1.02557 16.55C0.778569 15.913 0.610569 15.187 0.560569 14.122L0.530569 13.41L0.525569 13.216C0.507135 12.4868 0.498801 11.7574 0.500569 11.028V8.972C0.497801 8.2426 0.505135 7.5132 0.522569 6.784L0.529569 6.59C0.537569 6.365 0.547569 6.144 0.559569 5.878C0.609569 4.813 0.777569 4.088 1.02457 3.45C1.27626 2.7822 1.67079 2.17744 2.18057 1.678C2.67972 1.16955 3.28376 0.776074 3.95057 0.525C4.58857 0.278 5.31357 0.11 6.37857 0.0599999C6.64457 0.0479999 6.86657 0.038 7.09057 0.03L7.28457 0.0239999C8.01376 0.00623271 8.74316 -0.0014347 9.47257 0.000999928L11.5286 0ZM10.5006 5C9.17449 5 7.90272 5.52678 6.96503 6.46447C6.02735 7.40215 5.50057 8.67392 5.50057 10C5.50057 11.3261 6.02735 12.5979 6.96503 13.5355C7.90272 14.4732 9.17449 15 10.5006 15C11.8267 15 13.0984 14.4732 14.0361 13.5355C14.9738 12.5979 15.5006 11.3261 15.5006 10C15.5006 8.67392 14.9738 7.40215 14.0361 6.46447C13.0984 5.52678 11.8267 5 10.5006 5ZM10.5006 7C10.8945 6.99993 11.2847 7.07747 11.6487 7.22817C12.0127 7.37887 12.3434 7.5998 12.622 7.87833C12.9007 8.15686 13.1217 8.48754 13.2725 8.85149C13.4233 9.21544 13.501 9.60553 13.5011 9.9995C13.5011 10.3935 13.4236 10.7836 13.2729 11.1476C13.1222 11.5116 12.9013 11.8423 12.6227 12.121C12.3442 12.3996 12.0135 12.6206 11.6496 12.7714C11.2856 12.9223 10.8955 12.9999 10.5016 13C9.70592 13 8.94286 12.6839 8.38025 12.1213C7.81764 11.5587 7.50157 10.7956 7.50157 10C7.50157 9.20435 7.81764 8.44129 8.38025 7.87868C8.94286 7.31607 9.70592 7 10.5016 7M15.7516 3.5C15.42 3.5 15.1021 3.6317 14.8677 3.86612C14.6333 4.10054 14.5016 4.41848 14.5016 4.75C14.5016 5.08152 14.6333 5.39946 14.8677 5.63388C15.1021 5.8683 15.42 6 15.7516 6C16.0831 6 16.401 5.8683 16.6355 5.63388C16.8699 5.39946 17.0016 5.08152 17.0016 4.75C17.0016 4.41848 16.8699 4.10054 16.6355 3.86612C16.401 3.6317 16.0831 3.5 15.7516 3.5Z" fill="#FBFBFB"/>
</svg>
