<svg width="24" height="25" viewBox="0 0 24 25" fill="none" xmlns="http://www.w3.org/2000/svg">
<g clip-path="url(#clip0_1238_6961)">
<path fill-rule="evenodd" clip-rule="evenodd" d="M16.6751 3.12805C13.5289 2.42477 10.2663 2.42477 7.12008 3.12805L6.78108 3.20305C5.89586 3.40038 5.08277 3.83952 4.43235 4.47159C3.78192 5.10365 3.31968 5.90383 3.09708 6.78305C2.30097 9.92575 2.30097 13.2173 3.09708 16.36C3.30939 17.1985 3.73986 17.9659 4.34476 18.5841C4.94966 19.2024 5.70743 19.6495 6.54108 19.88L7.00608 22.656C7.02093 22.7442 7.05913 22.8268 7.11672 22.8951C7.1743 22.9635 7.24917 23.0152 7.33351 23.0448C7.41785 23.0744 7.50859 23.0809 7.59628 23.0635C7.68396 23.0461 7.76539 23.0056 7.83208 22.946L10.5631 20.503C12.6132 20.6268 14.6705 20.4629 16.6751 20.016L17.0151 19.941C17.9003 19.7437 18.7134 19.3046 19.3638 18.6725C20.0142 18.0404 20.4765 17.2403 20.6991 16.361C21.4952 13.2183 21.4952 9.92674 20.6991 6.78405C20.4764 5.90471 20.014 5.10444 19.3634 4.47236C18.7128 3.84028 17.8995 3.40121 17.0141 3.20405L16.6751 3.12805ZM7.96408 6.70205C7.77823 6.67483 7.58866 6.71225 7.42708 6.80805H7.41308C7.03808 7.02805 6.70008 7.30505 6.41208 7.63105C6.17208 7.90805 6.04208 8.18805 6.00808 8.45805C5.98808 8.61805 6.00208 8.78005 6.04908 8.93304L6.06708 8.94305C6.33708 9.73604 6.68908 10.499 7.11908 11.217C7.67378 12.2254 8.35606 13.1581 9.14908 13.992L9.17308 14.026L9.21108 14.054L9.23408 14.081L9.26208 14.105C10.0991 14.9004 11.0339 15.5859 12.0441 16.145C13.1991 16.774 13.9001 17.071 14.3211 17.195V17.201C14.4441 17.239 14.5561 17.256 14.6691 17.256C15.0278 17.2303 15.3674 17.0845 15.6331 16.842C15.9581 16.554 16.2331 16.215 16.4471 15.838V15.831C16.6481 15.451 16.5801 15.093 16.2901 14.85C15.7081 14.3405 15.0781 13.8884 14.4091 13.5C13.9611 13.257 13.5061 13.404 13.3221 13.65L12.9291 14.146C12.7271 14.392 12.3611 14.358 12.3611 14.358L12.3511 14.364C9.62008 13.667 8.89108 10.902 8.89108 10.902C8.89108 10.902 8.85708 10.526 9.11008 10.334L9.60208 9.93805C9.83808 9.74605 10.0021 9.29205 9.74908 8.84405C9.36166 8.17547 8.91056 7.54588 8.40208 6.96405C8.29086 6.82742 8.13509 6.73431 7.96208 6.70105M12.5781 5.50005C12.4455 5.50005 12.3183 5.55272 12.2245 5.64649C12.1308 5.74026 12.0781 5.86744 12.0781 6.00005C12.0781 6.13265 12.1308 6.25983 12.2245 6.3536C12.3183 6.44737 12.4455 6.50005 12.5781 6.50005C13.8431 6.50005 14.8931 6.91305 15.7241 7.70505C16.1511 8.13805 16.4841 8.65105 16.7021 9.21305C16.9211 9.77605 17.0211 10.377 16.9951 10.979C16.9923 11.0447 17.0025 11.1103 17.0251 11.172C17.0477 11.2337 17.0822 11.2904 17.1267 11.3387C17.2165 11.4365 17.3415 11.4945 17.4741 11.5C17.6067 11.5056 17.7361 11.4583 17.8338 11.3684C17.9315 11.2786 17.9895 11.1537 17.9951 11.021C18.0249 10.2806 17.902 9.54195 17.6341 8.85105C17.3649 8.15663 16.955 7.52541 16.4301 6.99705L16.4201 6.98705C15.3891 6.00205 14.0841 5.50005 12.5781 5.50005ZM12.5441 7.14405C12.4115 7.14405 12.2843 7.19672 12.1905 7.29049C12.0968 7.38426 12.0441 7.51144 12.0441 7.64405C12.0441 7.77665 12.0968 7.90383 12.1905 7.9976C12.2843 8.09137 12.4115 8.14405 12.5441 8.14405H12.5611C13.4731 8.20905 14.1371 8.51305 14.6021 9.01205C15.0791 9.52605 15.3261 10.165 15.3071 10.955C15.304 11.0877 15.3538 11.216 15.4454 11.312C15.537 11.4079 15.663 11.4635 15.7956 11.4665C15.9282 11.4696 16.0566 11.4198 16.1525 11.3282C16.2484 11.2366 16.304 11.1107 16.3071 10.978C16.3311 9.94104 15.9971 9.04605 15.3351 8.33205V8.33005C14.6581 7.60405 13.7291 7.22005 12.6111 7.14505L12.5941 7.14305L12.5441 7.14405ZM12.5251 8.81905C12.4582 8.81314 12.3908 8.82078 12.3269 8.84151C12.263 8.86223 12.2039 8.89562 12.1532 8.93968C12.1025 8.98374 12.0612 9.03757 12.0317 9.09794C12.0023 9.15832 11.9853 9.22401 11.9818 9.29109C11.9783 9.35818 11.9884 9.42528 12.0114 9.48839C12.0344 9.5515 12.0699 9.60932 12.1157 9.65841C12.1616 9.7075 12.2169 9.74685 12.2783 9.7741C12.3397 9.80136 12.4059 9.81596 12.4731 9.81705C12.8911 9.83905 13.1581 9.96504 13.3261 10.134C13.4951 10.304 13.6211 10.577 13.6441 11.004C13.6453 11.0711 13.6601 11.1373 13.6874 11.1986C13.7148 11.2599 13.7542 11.315 13.8033 11.3607C13.8525 11.4065 13.9103 11.4418 13.9734 11.4647C14.0364 11.4876 14.1035 11.4976 14.1705 11.494C14.2375 11.4905 14.3031 11.4735 14.3634 11.444C14.4237 11.4146 14.4775 11.3733 14.5215 11.3226C14.5655 11.2719 14.5989 11.2129 14.6196 11.1491C14.6403 11.0852 14.6479 11.0179 14.6421 10.951C14.6101 10.351 14.4221 9.82104 14.0371 9.43105C13.6501 9.04105 13.1231 8.85105 12.5251 8.81905Z" fill="#FBFBFB"/>
</g>
<defs>
<clipPath id="clip0_1238_6961">
<rect width="24" height="24" fill="white" transform="translate(0 0.5)"/>
</clipPath>
</defs>
</svg>
