<svg width="20" height="22" viewBox="0 0 20 22" fill="none" xmlns="http://www.w3.org/2000/svg">
<path fill-rule="evenodd" clip-rule="evenodd" d="M14.6751 1.12805C11.5289 0.424766 8.26626 0.424766 5.12008 1.12805L4.78108 1.20305C3.89586 1.40038 3.08277 1.83952 2.43235 2.47159C1.78192 3.10365 1.31968 3.90383 1.09708 4.78305C0.300972 7.92575 0.300972 11.2173 1.09708 14.36C1.30939 15.1985 1.73986 15.9659 2.34476 16.5841C2.94966 17.2024 3.70743 17.6495 4.54108 17.88L5.00608 20.656C5.02093 20.7442 5.05913 20.8268 5.11672 20.8951C5.1743 20.9635 5.24917 21.0152 5.33351 21.0448C5.41785 21.0744 5.50859 21.0809 5.59628 21.0635C5.68396 21.0461 5.76539 21.0056 5.83208 20.946L8.56308 18.503C10.6132 18.6268 12.6705 18.4629 14.6751 18.016L15.0151 17.941C15.9003 17.7437 16.7134 17.3046 17.3638 16.6725C18.0142 16.0404 18.4765 15.2403 18.6991 14.361C19.4952 11.2183 19.4952 7.92674 18.6991 4.78405C18.4764 3.90471 18.014 3.10444 17.3634 2.47236C16.7128 1.84028 15.8995 1.40121 15.0141 1.20405L14.6751 1.12805ZM5.96408 4.70205C5.77823 4.67483 5.58866 4.71225 5.42708 4.80805H5.41308C5.03808 5.02805 4.70008 5.30505 4.41208 5.63105C4.17208 5.90805 4.04208 6.18805 4.00808 6.45805C3.98808 6.61805 4.00208 6.78005 4.04908 6.93304L4.06708 6.94305C4.33708 7.73604 4.68908 8.49904 5.11908 9.21704C5.67378 10.2254 6.35606 11.1581 7.14908 11.992L7.17308 12.026L7.21108 12.054L7.23408 12.081L7.26208 12.105C8.09906 12.9004 9.03392 13.5859 10.0441 14.145C11.1991 14.774 11.9001 15.071 12.3211 15.195V15.201C12.4441 15.239 12.5561 15.256 12.6691 15.256C13.0278 15.2303 13.3674 15.0845 13.6331 14.842C13.9581 14.554 14.2331 14.215 14.4471 13.838V13.831C14.6481 13.451 14.5801 13.093 14.2901 12.85C13.7081 12.3405 13.0781 11.8884 12.4091 11.5C11.9611 11.257 11.5061 11.404 11.3221 11.65L10.9291 12.146C10.7271 12.392 10.3611 12.358 10.3611 12.358L10.3511 12.364C7.62008 11.667 6.89108 8.90205 6.89108 8.90205C6.89108 8.90205 6.85708 8.52604 7.11008 8.33404L7.60208 7.93805C7.83808 7.74605 8.00208 7.29205 7.74908 6.84405C7.36166 6.17547 6.91056 5.54588 6.40208 4.96405C6.29086 4.82742 6.13509 4.73431 5.96208 4.70105M10.5781 3.50005C10.4455 3.50005 10.3183 3.55272 10.2245 3.64649C10.1308 3.74026 10.0781 3.86744 10.0781 4.00005C10.0781 4.13265 10.1308 4.25983 10.2245 4.3536C10.3183 4.44737 10.4455 4.50005 10.5781 4.50005C11.8431 4.50005 12.8931 4.91305 13.7241 5.70505C14.1511 6.13805 14.4841 6.65105 14.7021 7.21305C14.9211 7.77605 15.0211 8.37704 14.9951 8.97904C14.9923 9.04471 15.0025 9.11027 15.0251 9.17198C15.0477 9.2337 15.0822 9.29037 15.1267 9.33875C15.2165 9.43646 15.3415 9.49448 15.4741 9.50004C15.6067 9.50561 15.7361 9.45828 15.8338 9.36845C15.9315 9.27862 15.9895 9.15365 15.9951 9.02104C16.0249 8.2806 15.902 7.54195 15.6341 6.85105C15.3649 6.15663 14.955 5.52541 14.4301 4.99705L14.4201 4.98705C13.3891 4.00205 12.0841 3.50005 10.5781 3.50005ZM10.5441 5.14405C10.4115 5.14405 10.2843 5.19672 10.1905 5.29049C10.0968 5.38426 10.0441 5.51144 10.0441 5.64405C10.0441 5.77665 10.0968 5.90383 10.1905 5.9976C10.2843 6.09137 10.4115 6.14405 10.5441 6.14405H10.5611C11.4731 6.20905 12.1371 6.51305 12.6021 7.01205C13.0791 7.52605 13.3261 8.16504 13.3071 8.95504C13.304 9.08765 13.3538 9.21604 13.4454 9.31197C13.537 9.40789 13.663 9.4635 13.7956 9.46655C13.9282 9.46959 14.0566 9.41984 14.1525 9.32823C14.2484 9.23662 14.304 9.11065 14.3071 8.97804C14.3311 7.94104 13.9971 7.04605 13.3351 6.33205V6.33005C12.6581 5.60405 11.7291 5.22005 10.6111 5.14505L10.5941 5.14305L10.5441 5.14405ZM10.5251 6.81905C10.4582 6.81314 10.3908 6.82078 10.3269 6.84151C10.263 6.86223 10.2039 6.89562 10.1532 6.93968C10.1025 6.98374 10.0612 7.03757 10.0317 7.09794C10.0023 7.15832 9.98531 7.22401 9.98181 7.29109C9.97832 7.35818 9.98838 7.42528 10.0114 7.48839C10.0344 7.5515 10.0699 7.60932 10.1157 7.65841C10.1616 7.7075 10.2169 7.74685 10.2783 7.7741C10.3397 7.80136 10.4059 7.81596 10.4731 7.81705C10.8911 7.83905 11.1581 7.96504 11.3261 8.13405C11.4951 8.30405 11.6211 8.57704 11.6441 9.00404C11.6453 9.07114 11.6601 9.13731 11.6874 9.19859C11.7148 9.25987 11.7542 9.31501 11.8033 9.36074C11.8525 9.40646 11.9103 9.44183 11.9734 9.46473C12.0364 9.48763 12.1035 9.4976 12.1705 9.49404C12.2375 9.49048 12.3031 9.47347 12.3634 9.44402C12.4237 9.41456 12.4775 9.37327 12.5215 9.3226C12.5655 9.27193 12.5989 9.21292 12.6196 9.14908C12.6403 9.08525 12.6479 9.0179 12.6421 8.95105C12.6101 8.35105 12.4221 7.82104 12.0371 7.43105C11.6501 7.04105 11.1231 6.85105 10.5251 6.81905Z" fill="#FBFBFB"/>
</svg>
