<svg width="64" height="64" viewBox="0 0 64 64" fill="none" xmlns="http://www.w3.org/2000/svg">
<path fill-rule="evenodd" clip-rule="evenodd" d="M31.9987 58.6667C46.7267 58.6667 58.6654 46.728 58.6654 32C58.6654 17.272 46.7267 5.33334 31.9987 5.33334C17.2707 5.33334 5.33203 17.272 5.33203 32C5.33203 46.728 17.2707 58.6667 31.9987 58.6667ZM33.9987 16C33.9987 15.4696 33.788 14.9609 33.4129 14.5858C33.0378 14.2107 32.5291 14 31.9987 14C31.4683 14 30.9596 14.2107 30.5845 14.5858C30.2094 14.9609 29.9987 15.4696 29.9987 16V16.8453C25.652 17.624 21.9987 20.8907 21.9987 25.3333C21.9987 30.4453 26.8334 34 31.9987 34C35.6707 34 37.9987 36.416 37.9987 38.6667C37.9987 40.9173 35.6707 43.3333 31.9987 43.3333C28.3294 43.3333 25.9987 40.9173 25.9987 38.6667C25.9987 38.1362 25.788 37.6275 25.4129 37.2525C25.0378 36.8774 24.5291 36.6667 23.9987 36.6667C23.4683 36.6667 22.9596 36.8774 22.5845 37.2525C22.2094 37.6275 21.9987 38.1362 21.9987 38.6667C21.9987 43.1093 25.652 46.376 29.9987 47.1547V48C29.9987 48.5304 30.2094 49.0392 30.5845 49.4142C30.9596 49.7893 31.4683 50 31.9987 50C32.5291 50 33.0378 49.7893 33.4129 49.4142C33.788 49.0392 33.9987 48.5304 33.9987 48V47.1547C38.3454 46.376 41.9987 43.1093 41.9987 38.6667C41.9987 33.5547 37.164 30 31.9987 30C28.3294 30 25.9987 27.584 25.9987 25.3333C25.9987 23.0827 28.3294 20.6667 31.9987 20.6667C35.6707 20.6667 37.9987 23.0827 37.9987 25.3333C37.9987 25.8638 38.2094 26.3725 38.5845 26.7476C38.9596 27.1226 39.4683 27.3333 39.9987 27.3333C40.5291 27.3333 41.0378 27.1226 41.4129 26.7476C41.788 26.3725 41.9987 25.8638 41.9987 25.3333C41.9987 20.8907 38.3454 17.624 33.9987 16.8453V16Z" fill="#F6F6F6"/>
</svg>
