<svg width="64" height="64" viewBox="0 0 64 64" fill="none" xmlns="http://www.w3.org/2000/svg">
<path d="M52.0309 33.5094C51.9217 34.1897 51.6264 34.8266 51.1776 35.3494C50.7152 35.864 50.1271 36.2499 49.4709 36.4694L37.5243 38.7361L43.4976 50.0161C43.7323 50.3814 43.8976 50.7894 43.9776 51.2161C44.0709 51.7094 44.0709 52.2161 43.9776 52.7094C43.8743 53.2019 43.665 53.6659 43.3643 54.0694C43.0656 54.4881 42.6843 54.8427 42.2443 55.1094L37.7376 57.4561C37.2044 57.7405 36.6086 57.8871 36.0043 57.8827C35.6309 57.8827 35.2665 57.8294 34.9109 57.7227C33.9744 57.4249 33.1902 56.7747 32.7243 55.9094L26.7243 44.5227L18.1643 52.7361C17.6179 53.2432 16.9323 53.5752 16.1957 53.6892C15.459 53.8033 14.7051 53.6942 14.0309 53.3761C13.3766 53.0492 12.8302 52.541 12.4566 51.9122C12.0831 51.2833 11.8983 50.5603 11.9243 49.8294V9.85606C11.9335 9.19269 12.1077 8.54205 12.4309 7.96272C12.7704 7.37382 13.2697 6.89306 13.8709 6.57606C14.4613 6.25439 15.1281 6.09934 15.7998 6.12753C16.4715 6.15571 17.1229 6.36606 17.6843 6.73606L50.4843 29.8294C51.0443 30.2374 51.4869 30.7894 51.7643 31.4294C52.0496 32.0827 52.1403 32.8027 52.0309 33.5094Z" fill="#F6F6F6"/>
</svg>
