<svg width="64" height="64" viewBox="0 0 64 64" fill="none" xmlns="http://www.w3.org/2000/svg">
<g clip-path="url(#clip0_1271_8972)">
<path d="M46.452 8C47.392 8.0003 48.3153 8.24908 49.1283 8.72113C49.9413 9.19317 50.615 9.87171 51.0813 10.688L59.972 26.24C60.5522 27.2556 60.7825 28.4338 60.6273 29.5932C60.4722 30.7525 59.9402 31.8287 59.1133 32.656L34.3586 57.4107C34.0491 57.7203 33.6816 57.9659 33.2771 58.1335C32.8726 58.301 32.4391 58.3873 32.0013 58.3873C31.5635 58.3873 31.13 58.301 30.7255 58.1335C30.321 57.9659 29.9535 57.7203 29.644 57.4107L4.88929 32.656C4.06241 31.8287 3.53042 30.7525 3.37526 29.5932C3.22011 28.4338 3.45038 27.2556 4.03062 26.24L12.9186 10.6853C13.385 9.86993 14.0585 9.19218 14.8709 8.72064C15.6834 8.2491 16.6059 8.0005 17.5453 8H46.452ZM39.9986 16H23.9986C23.3189 16.0008 22.6652 16.261 22.171 16.7276C21.6767 17.1942 21.3793 17.8319 21.3395 18.5104C21.2997 19.1889 21.5204 19.857 21.9567 20.3782C22.3929 20.8994 23.0117 21.2344 23.6866 21.3147L23.9986 21.3333H29.332V25.4533C27.3106 25.64 25.4733 26.032 23.988 26.5893C22.9346 26.984 21.9906 27.4853 21.2866 28.112C20.5826 28.736 19.9986 29.5973 19.9986 30.6667C19.9986 31.736 20.5826 32.5973 21.2866 33.2213C21.9906 33.848 22.9346 34.3493 23.988 34.7413C25.572 35.336 27.556 35.7467 29.74 35.9147C29.5288 36.2506 29.3957 36.6297 29.3506 37.024L29.332 37.3333V42.6667C29.3327 43.3463 29.593 44.0001 30.0596 44.4943C30.5261 44.9885 31.1638 45.286 31.8423 45.3258C32.5209 45.3656 33.189 45.1449 33.7102 44.7086C34.2314 44.2724 34.5663 43.6536 34.6466 42.9787L34.6653 42.6667V37.3333C34.6662 36.8314 34.5247 36.3394 34.2573 35.9147C36.4413 35.7467 38.4253 35.3387 40.0093 34.7413C41.0626 34.3493 42.0066 33.848 42.7106 33.2213C43.4146 32.5973 43.9986 31.736 43.9986 30.6667C43.9986 29.5973 43.4146 28.736 42.7106 28.112C42.0066 27.4853 41.0626 26.984 40.0093 26.592C38.5586 26.0717 37.0526 25.7209 35.5213 25.5467L34.6653 25.4533V21.3333H39.9986C40.6783 21.3326 41.332 21.0723 41.8263 20.6057C42.3205 20.1392 42.6179 19.5015 42.6578 18.8229C42.6976 18.1444 42.4768 17.4763 42.0406 16.9551C41.6043 16.4339 40.9855 16.0989 40.3106 16.0187L39.9986 16ZM34.6626 28.1333C36.1668 28.2655 37.6485 28.5853 39.0733 29.0853C39.9506 29.416 40.5666 29.776 40.94 30.1067C41.102 30.2313 41.2303 30.3945 41.3133 30.5813L41.332 30.6667L41.3133 30.752C41.2303 30.9389 41.102 31.102 40.94 31.2267C40.5666 31.5573 39.9506 31.92 39.0733 32.2453C37.3266 32.9013 34.8253 33.3333 31.9986 33.3333C29.172 33.3333 26.6706 32.9013 24.924 32.2453C24.0466 31.9173 23.4306 31.5573 23.0546 31.2267C22.8926 31.102 22.7642 30.9389 22.6813 30.752L22.6653 30.6667C22.6653 30.632 22.6786 30.44 23.0546 30.1067C23.428 29.776 24.0466 29.4133 24.924 29.088C26.0973 28.648 27.6093 28.3067 29.3346 28.1333C29.3653 28.8192 29.6594 29.4669 30.1556 29.9414C30.6519 30.4159 31.312 30.6808 31.9986 30.6808C32.6852 30.6808 33.3454 30.4159 33.8416 29.9414C34.3378 29.4669 34.6319 28.8192 34.6626 28.1333Z" fill="#F6F6F6"/>
</g>
<defs>
<clipPath id="clip0_1271_8972">
<rect width="64" height="64" fill="white"/>
</clipPath>
</defs>
</svg>
