<svg width="64" height="64" viewBox="0 0 64 64" fill="none" xmlns="http://www.w3.org/2000/svg">
<path fill-rule="evenodd" clip-rule="evenodd" d="M28.4442 16.3573L27.1056 15.4106C25.1953 14.0587 22.9125 13.3329 20.5722 13.3333H18.9402C17.8602 13.3333 16.7722 13.4 15.7562 13.76C9.40158 16.016 5.03091 24.2533 5.34825 42.9413C5.41225 46.7066 6.29225 50.8666 9.68958 52.4906C10.8485 53.0478 12.1184 53.3359 13.4042 53.3333C14.8496 53.357 16.2695 52.9515 17.4842 52.168C18.5776 51.4533 19.5376 50.5253 20.4976 49.5973C21.6816 48.4506 22.8656 47.304 24.2949 46.5626C25.852 45.7545 27.5806 45.3328 29.3349 45.3333H34.6656C36.4202 45.3333 38.1482 45.7546 39.7056 46.56C41.1349 47.304 42.3189 48.4506 43.5056 49.5973C44.4656 50.5253 45.4256 51.4533 46.5136 52.168C47.5536 52.8506 48.9002 53.3333 50.5962 53.3333C51.8821 53.3359 53.152 53.0478 54.3109 52.4906C57.7082 50.8666 58.5882 46.704 58.6522 42.9413C58.9696 24.2533 54.5989 16.016 48.2442 13.7626C47.2256 13.4 46.1322 13.3333 45.0576 13.3333H43.4256C41.085 13.3337 38.8022 14.0605 36.8922 15.4133L35.5536 16.3573C34.5138 17.092 33.272 17.4864 31.9989 17.4864C30.7258 17.4864 29.484 17.092 28.4442 16.3573ZM44.6656 24C45.196 24 45.7047 24.2107 46.0798 24.5858C46.4549 24.9608 46.6656 25.4695 46.6656 26C46.6656 26.5304 46.4549 27.0391 46.0798 27.4142C45.7047 27.7893 45.196 28 44.6656 28C44.1351 28 43.6264 27.7893 43.2514 27.4142C42.8763 27.0391 42.6656 26.5304 42.6656 26C42.6656 25.4695 42.8763 24.9608 43.2514 24.5858C43.6264 24.2107 44.1351 24 44.6656 24ZM19.9989 24.6666C20.5293 24.6666 21.0381 24.8774 21.4131 25.2524C21.7882 25.6275 21.9989 26.1362 21.9989 26.6666V28.6666H23.9989C24.5293 28.6666 25.0381 28.8774 25.4131 29.2524C25.7882 29.6275 25.9989 30.1362 25.9989 30.6666C25.9989 31.1971 25.7882 31.7058 25.4131 32.0809C25.0381 32.4559 24.5293 32.6666 23.9989 32.6666H21.9989V34.6666C21.9989 35.1971 21.7882 35.7058 21.4131 36.0809C21.0381 36.4559 20.5293 36.6666 19.9989 36.6666C19.4685 36.6666 18.9598 36.4559 18.5847 36.0809C18.2096 35.7058 17.9989 35.1971 17.9989 34.6666V32.6666H15.9989C15.4685 32.6666 14.9598 32.4559 14.5847 32.0809C14.2096 31.7058 13.9989 31.1971 13.9989 30.6666C13.9989 30.1362 14.2096 29.6275 14.5847 29.2524C14.9598 28.8774 15.4685 28.6666 15.9989 28.6666H17.9989V26.6666C17.9989 26.1362 18.2096 25.6275 18.5847 25.2524C18.9598 24.8774 19.4685 24.6666 19.9989 24.6666ZM50.6656 30C50.6656 30.5304 50.4549 31.0391 50.0798 31.4142C49.7047 31.7893 49.196 32 48.6656 32C48.1351 32 47.6264 31.7893 47.2514 31.4142C46.8763 31.0391 46.6656 30.5304 46.6656 30C46.6656 29.4695 46.8763 28.9608 47.2514 28.5858C47.6264 28.2107 48.1351 28 48.6656 28C49.196 28 49.7047 28.2107 50.0798 28.5858C50.4549 28.9608 50.6656 29.4695 50.6656 30ZM40.6656 32C41.196 32 41.7047 31.7893 42.0798 31.4142C42.4549 31.0391 42.6656 30.5304 42.6656 30C42.6656 29.4695 42.4549 28.9608 42.0798 28.5858C41.7047 28.2107 41.196 28 40.6656 28C40.1351 28 39.6264 28.2107 39.2514 28.5858C38.8763 28.9608 38.6656 29.4695 38.6656 30C38.6656 30.5304 38.8763 31.0391 39.2514 31.4142C39.6264 31.7893 40.1351 32 40.6656 32ZM46.6656 34C46.6656 33.4695 46.4549 32.9608 46.0798 32.5858C45.7047 32.2107 45.196 32 44.6656 32C44.1351 32 43.6264 32.2107 43.2514 32.5858C42.8763 32.9608 42.6656 33.4695 42.6656 34C42.6656 34.5304 42.8763 35.0391 43.2514 35.4142C43.6264 35.7893 44.1351 36 44.6656 36C45.196 36 45.7047 35.7893 46.0798 35.4142C46.4549 35.0391 46.6656 34.5304 46.6656 34Z" fill="#F6F6F6"/>
</svg>
