<svg width="108" height="108" viewBox="0 0 108 108" fill="none" xmlns="http://www.w3.org/2000/svg">
<path d="M54.0013 0.666748C83.4573 0.666748 107.335 24.5441 107.335 54.0001C107.335 83.4561 83.4573 107.333 54.0013 107.333C24.5453 107.333 0.667969 83.4561 0.667969 54.0001C0.667969 24.5441 24.5453 0.666748 54.0013 0.666748ZM72.8546 34.6987L46.4546 61.0987L35.148 49.7867C34.6528 49.2912 34.0649 48.8981 33.4178 48.6298C32.7707 48.3615 32.077 48.2232 31.3765 48.223C29.9617 48.2225 28.6047 48.784 27.604 49.7841C26.6032 50.7841 26.0407 52.1407 26.0402 53.5555C26.0397 54.9703 26.6013 56.3273 27.6013 57.3281L42.3106 72.0374C42.8554 72.5825 43.5023 73.0149 44.2143 73.3099C44.9262 73.6049 45.6893 73.7567 46.46 73.7567C47.2306 73.7567 47.9937 73.6049 48.7057 73.3099C49.4176 73.0149 50.0645 72.5825 50.6093 72.0374L80.4013 42.2454C81.4021 41.2447 81.9643 39.8874 81.9643 38.4721C81.9643 37.0568 81.4021 35.6995 80.4013 34.6987C79.4006 33.698 78.0432 33.1358 76.628 33.1358C75.2127 33.1358 73.8554 33.698 72.8546 34.6987Z" fill="#3181EB"/>
</svg>
