<svg width="110" height="97" viewBox="0 0 110 97" fill="none" xmlns="http://www.w3.org/2000/svg">
<path d="M61.9289 4.78931L107.977 84.544C108.679 85.7601 109.049 87.1396 109.049 88.5439C109.049 89.9482 108.679 91.3277 107.977 92.5439C107.275 93.76 106.265 94.7699 105.049 95.4721C103.833 96.1743 102.453 96.5439 101.049 96.544H8.95292C7.54865 96.5439 6.16912 96.1743 4.95299 95.4721C3.73687 94.7699 2.72699 93.76 2.02487 92.5439C1.32275 91.3277 0.953116 89.9482 0.953125 88.5439C0.953134 87.1396 1.32278 85.7601 2.02492 84.544L48.0729 4.78931C51.1503 -0.544027 58.8463 -0.544027 61.9289 4.78931ZM55.0009 68C53.5864 68 52.2299 68.5619 51.2297 69.5621C50.2295 70.5623 49.6676 71.9188 49.6676 73.3333C49.6676 74.7478 50.2295 76.1043 51.2297 77.1045C52.2299 78.1047 53.5864 78.6666 55.0009 78.6666C56.4154 78.6666 57.772 78.1047 58.7722 77.1045C59.7724 76.1043 60.3343 74.7478 60.3343 73.3333C60.3343 71.9188 59.7724 70.5623 58.7722 69.5621C57.772 68.5619 56.4154 68 55.0009 68ZM55.0009 30.6666C53.6946 30.6668 52.4338 31.1464 51.4576 32.0145C50.4814 32.8825 49.8578 34.0786 49.7049 35.376L49.6676 36V57.3333C49.6691 58.6927 50.1896 60.0001 51.1228 60.9886C52.0559 61.9771 53.3313 62.5719 54.6884 62.6516C56.0454 62.7312 57.3816 62.2897 58.424 61.4172C59.4664 60.5447 60.1364 59.3071 60.2969 57.9573L60.3343 57.3333V36C60.3343 34.5855 59.7724 33.2289 58.7722 32.2287C57.772 31.2285 56.4154 30.6666 55.0009 30.6666Z" fill="#2F2F2F"/>
</svg>
