<svg width="130" height="22" viewBox="0 0 130 22" fill="none" xmlns="http://www.w3.org/2000/svg">
<path d="M0.871247 21V0.839999H14.0312V4.396H4.67925V8.708H12.3512V12.264H4.67925V17.444H14.0312V21H0.871247ZM16.2669 21L22.4269 0.839999H28.1109L34.2709 21H30.3509L24.8629 3.22H25.5909L20.1869 21H16.2669ZM19.9629 16.8V13.244H30.6029V16.8H19.9629ZM44.1293 21.42C42.6359 21.42 41.2873 21.1587 40.0833 20.636C38.8886 20.104 37.9039 19.348 37.1293 18.368C36.3639 17.3787 35.8786 16.2027 35.6733 14.84L39.6493 14.252C39.9293 15.4093 40.5079 16.3007 41.3853 16.926C42.2626 17.5513 43.2613 17.864 44.3813 17.864C45.0066 17.864 45.6133 17.766 46.2013 17.57C46.7893 17.374 47.2699 17.0847 47.6433 16.702C48.0259 16.3193 48.2173 15.848 48.2173 15.288C48.2173 15.0827 48.1846 14.8867 48.1193 14.7C48.0633 14.504 47.9653 14.322 47.8253 14.154C47.6853 13.986 47.4846 13.8273 47.2233 13.678C46.9713 13.5287 46.6493 13.3933 46.2573 13.272L41.0213 11.732C40.6293 11.62 40.1719 11.4613 39.6493 11.256C39.1359 11.0507 38.6366 10.7567 38.1513 10.374C37.6659 9.99133 37.2599 9.48733 36.9333 8.862C36.6159 8.22733 36.4573 7.42933 36.4573 6.468C36.4573 5.11467 36.7979 3.99 37.4793 3.094C38.1606 2.198 39.0706 1.53067 40.2093 1.092C41.3479 0.653332 42.6079 0.438665 43.9893 0.447999C45.3799 0.466666 46.6213 0.704666 47.7133 1.162C48.8053 1.61933 49.7199 2.28667 50.4573 3.164C51.1946 4.032 51.7266 5.096 52.0533 6.356L47.9373 7.056C47.7879 6.40267 47.5126 5.852 47.1113 5.404C46.7099 4.956 46.2293 4.61533 45.6693 4.382C45.1186 4.14867 44.5399 4.02267 43.9333 4.004C43.3359 3.98533 42.7713 4.06933 42.2393 4.256C41.7166 4.43333 41.2873 4.69467 40.9513 5.04C40.6246 5.38533 40.4613 5.796 40.4613 6.272C40.4613 6.71067 40.5966 7.07 40.8673 7.35C41.1379 7.62067 41.4786 7.84 41.8893 8.008C42.2999 8.176 42.7199 8.316 43.1493 8.428L46.6493 9.38C47.1719 9.52 47.7506 9.70667 48.3853 9.94C49.0199 10.164 49.6266 10.4813 50.2053 10.892C50.7933 11.2933 51.2739 11.8253 51.6473 12.488C52.0299 13.1507 52.2213 13.9907 52.2213 15.008C52.2213 16.0907 51.9926 17.038 51.5353 17.85C51.0873 18.6527 50.4806 19.32 49.7153 19.852C48.9499 20.3747 48.0819 20.7667 47.1113 21.028C46.1499 21.2893 45.1559 21.42 44.1293 21.42ZM59.6588 21V12.796L52.7708 0.839999H57.2228L61.5908 8.428L65.9588 0.839999H70.4108L63.5228 12.796V21H59.6588ZM77.6919 21V0.839999H81.4999V17.444H90.1799V21H77.6919ZM93.1203 21V0.839999H96.9283V21H93.1203ZM101.405 21V0.839999H113.725V4.648H105.213V9.016H112.045V12.824H105.213V21H101.405ZM116.533 21V0.839999H129.693V4.396H120.341V8.708H128.013V12.264H120.341V17.444H129.693V21H116.533Z" fill="#2F2F2F"/>
</svg>
